<?xml version="1.0" encoding="utf-8"?>
<!-- Generator: Adobe Illustrator 18.1.1, SVG Export Plug-In . SVG Version: 6.00 Build 0)  -->
<svg version="1.1" id="Camada_1" xmlns="http://www.w3.org/2000/svg" xmlns:xlink="http://www.w3.org/1999/xlink" x="0px" y="0px"
	 viewBox="0 0 672 504" enable-background="new 0 0 672 504" xml:space="preserve">
<g>
	<g>
		<path d="M218.5,166.7c-5-11.4-13.9-20.9-25.9-26.2c-0.5-0.2-1-0.3-1.4-0.5c-1.7-8.5-3.7-16.4-6.8-18.9c-6.9-5.7-34.2-1.4-40.1,3
			c-2.9,2.2-2.7,11.7-2.2,21.4c-9.1,6-16.8,14.7-21.8,25.6c-0.3,0.6-0.5,1.2-0.7,1.7c-9.2,1-18.2,2.2-20,5.3
			c-3.6,6.2,0.9,38.8,5.2,42.1c1.9,1.5,9,2,16.8,2.4c5.2,9.6,13.3,17.6,23.9,22.2c1.9,0.9,3.9,1.5,5.9,2.1
			c1.8,7.1,3.8,13.7,6.6,15.6c6.7,4.6,29.6,2.4,34.5-2.3c2.4-2.3,3-11.3,3.3-20.2c8.9-5.8,16.4-14.2,21.4-24.6
			c7.5-1.5,14.7-3.3,17.1-6.3c5.2-6.3,3.6-38.5-3.1-41.4C228.8,166.6,223.8,166.5,218.5,166.7z M381,134.3
			c-20.4-13.5-49.5-6.1-64.8,16.6c-15.3,22.7-11.2,52.1,9.2,65.6c20.4,13.5,49.5,6.1,64.8-16.6C405.5,177.2,401.4,147.8,381,134.3z
			 M576.7,10.4c-24.1-17.8-96.1-9.2-111.6,0c-15.5,9.2-15.5,29.2-23.2,44.5c-7.8,15.3-155,33.8-170.5,30.7
			c-15.5-3.1-29.5-30.7-38.8-41.4c-9.3-10.8-103.7-7.4-125.6,10.7C-25.3,164.9-2.1,459,8.8,480.5C19.6,502,91.6,517,138,487.7
			c45.5-28.7,101.7-172.3,117.2-184.6c15.5-12.3,173.2-37.5,198-22.1c24.8,15.3,55.3,140.2,84.8,149.4c29.5,9.2,61,14.1,98.2-19.4
			C704.3,349.6,670.2,79.4,576.7,10.4z M239.8,224.4c-19.1,42.4-66.9,62.6-106.6,45C93.6,251.9,76.9,203.3,96,160.8
			c19.1-42.5,66.9-62.6,106.6-45.1C242.3,133.3,259,182,239.8,224.4z M401.7,210.2c-20.4,30.2-58.9,40-86.1,22
			c-27.1-18-32.6-57-12.2-87.2c20.4-30.1,58.9-40,86.1-22C416.6,141.1,422.1,180.1,401.7,210.2z M510,92.9
			c3-17.3,17.1-29.3,31.4-26.8c14.3,2.5,23.5,18.5,20.4,35.8c-3,17.3-17.1,29.3-31.5,26.8C516.1,126.2,507,110.2,510,92.9z
			 M512.3,169.4c-3,17.3-17.1,29.3-31.5,26.8c-14.3-2.5-23.5-18.5-20.4-35.8c3-17.3,17.1-29.3,31.4-26.8
			C506.2,136.1,515.3,152.1,512.3,169.4z M568.1,224.6c-3,17.3-17.1,29.3-31.5,26.8c-14.3-2.5-23.5-18.5-20.4-35.8
			c3-17.3,17.1-29.3,31.4-26.8C562,191.3,571.2,207.3,568.1,224.6z M611.5,157.1c-3,17.3-17.1,29.3-31.5,26.8
			c-14.3-2.5-23.5-18.5-20.4-35.7c3-17.3,17.1-29.3,31.4-26.8C605.4,123.8,614.6,139.8,611.5,157.1z"/>
	</g>
</g>
</svg>
