<?xml version="1.0" encoding="utf-8"?>
<!-- Generator: Adobe Illustrator 18.1.1, SVG Export Plug-In . SVG Version: 6.00 Build 0)  -->
<svg version="1.1" id="Camada_1" xmlns="http://www.w3.org/2000/svg" xmlns:xlink="http://www.w3.org/1999/xlink" x="0px" y="0px"
	 viewBox="0 0 501.7 633" enable-background="new 0 0 501.7 633" xml:space="preserve">
<g>
	<g>
		<path d="M469.6,220.9L469.6,220.9l32.1-33.9l-49.1-54.5l-28.4,30.7v0c-9-8.3-18.8-15.9-29.3-22.8c-34.6-22.5-73.1-34.2-112.2-36.1
			l4.4-40.8h53V0L165,7.3v56.3h51.5l6,45.5c-68.8,14.1-134.1,57.6-176.9,125.5c-79.5,126-52,288,61.5,362
			c113.4,74,269.8,31.8,349.3-94.1C513.4,411.9,515.3,302.6,469.6,220.9z M412.5,473.9c-62.6,99.2-185.7,132.3-275,74.1
			c-89.3-58.2-111-185.8-48.4-284.9c62.6-99.2,185.7-132.3,275-74.1C453.5,247.2,475.1,374.8,412.5,473.9z M293.1,326.8L293.1,326.8
			l-19.6-109.4h-22.6l-13,111.5h0.1c-4.7,2.5-9.2,5.6-13.4,9.3c-26.1,23-31.6,60-12.3,82.8c19.3,22.8,56.2,22.6,82.3-0.3
			c26.1-22.9,31.6-60,12.3-82.8C303,333.2,298.3,329.6,293.1,326.8z"/>
	</g>
</g>
</svg>
