<?xml version="1.0" encoding="utf-8"?>
<!-- Generator: Adobe Illustrator 18.1.1, SVG Export Plug-In . SVG Version: 6.00 Build 0)  -->
<svg version="1.1" id="Camada_1" xmlns="http://www.w3.org/2000/svg" xmlns:xlink="http://www.w3.org/1999/xlink" x="0px" y="0px"
	 viewBox="0 0 549.4 501" enable-background="new 0 0 549.4 501" xml:space="preserve">
<path d="M294.9,501C217.8,501,87.3,444,13,338.5c-14.8-21-18.7-50.8-2.5-68.1c20.8-22.3,49.5-9.7,60.9-0.8c36,28,82.7,72.7,97.5,62
	c9.2-6.6-60.9-129-91.2-199.6c-9.4-22-8.9-49.2,13.7-60.8c31.5-16.2,50.8,8.6,63.4,28.9c40,64.5,69.2,145.5,79.2,143
	c10-2.5-14-125.1-9-203.2C226.5,17,246.2,0,267.6,0c18.7,0,42.2,12.9,44,39.7c5.5,82.1,2.7,199.3,10.8,201.7
	c9.9,2.9,32.5-95.1,62.7-157.5c8.9-18.3,30.6-31.6,53.2-22.3c24.9,10.3,25.6,37,20,55.2c-22.5,73.4-65.1,152.7-53.8,158.1
	c14.4,6.9,50.7-58,79.4-96.1c11.3-15.1,35.3-20.7,50-10.5c16.9,11.6,19.6,33.3,9.5,51.5c-19.9,35.9-68.2,98.2-77.7,125
	C447.8,395.6,397.6,501,294.9,501z"/>
</svg>
