<?xml version="1.0" encoding="UTF-8" standalone="no"?>
<svg width="531px" height="498px" viewBox="0 0 531 498" version="1.1" xmlns="http://www.w3.org/2000/svg" xmlns:xlink="http://www.w3.org/1999/xlink">
    <!-- Generator: Sketch 3.6.1 (26313) - http://www.bohemiancoding.com/sketch -->
    <title>Page 1</title>
    <desc>Created with Sketch.</desc>
    <defs>
        <path d="M485.363436,39.253304 C474.638767,38.6563877 463.299559,37.9757709 452.288546,37.9757709 C438.515419,38.0198238 427.592511,38.9273128 419.356828,40.9295154 C392.530837,47.4361233 372.213656,70.6079295 372.171806,99.4977974 C372.171806,102.971366 372.453744,106.46696 373.019824,109.955947 L373.376652,111.469163 L374.138767,113.920705 L374.726872,115.4163 C376.610132,119.334802 378.433921,129.436123 378.385463,137.372247 C378.504405,140.517621 378.200441,143.198238 377.612335,145.636564 C376.929515,145.929515 376.189427,146.218062 375.418502,146.488987 C363.61674,141.237885 351.779736,138.614537 340.259912,138.64978 C313.306167,139.310573 291.07489,151.859031 273.099119,172.063877 C267.253304,178.632159 262.240088,185.601322 257.894273,192.768722 C257.629956,193.204846 257.343612,193.687225 257.044053,194.204846 L253.823789,199.629956 C220.605727,182.328194 183.306167,170.444934 145.072687,170.30837 C82.4052863,169.592511 30.1145374,206.557269 4.02202643,282.493392 L3.35022026,284.914097 C3.12555066,285.975771 2.72907489,288.4163 2.54625551,289.596916 C2.21806167,291.744493 1.90969163,293.947137 1.62334802,296.330396 C0.612334802,304.676211 0.0176211454,313.552863 0.0286343612,322.951542 C-0.561674009,356.947137 8.01321586,392.511013 27.9713656,422.762115 C54.0352423,462.262115 97.123348,489.303965 158.814978,499.825991 L161.881057,499.9163 L167.312775,499.312775 L172.477974,498.740088 C174.757709,498.5 175.887665,498.372247 177.026432,498.235683 L179.19163,497.995595 C183.085903,497.460352 187.092511,496.843612 191.348018,496.068282 C209.951542,492.669604 228.290749,487.099119 245.577093,478.636564 C296.220264,453.837004 326.801762,409.832599 326.374449,343.284141 C326.374449,326.431718 324.385463,308.292952 320.332599,288.819383 C367.702643,287.656388 407.204846,242.557269 408.127753,195.480176 C420.211454,188.731278 430.138767,179.055066 436.048458,166.951542 L436.837004,164.792952 C438.268722,158.528634 438.900881,152.515419 438.900881,146.418502 C438.814978,137.504405 437.704846,129.812775 435.440529,119.279736 C432.495595,105.596916 432.38326,104.982379 432.471366,101.944934 C432.497797,99.1189427 432.828194,97.4889868 433.770925,95.685022 C434.984581,94.5198238 437.068282,93.9933921 442.643172,93.9251101 C446.257709,93.8986784 449.34141,94.1960352 458.451542,95.314978 C463.828194,95.9757709 466.845815,96.3061674 470.281938,96.561674 C472.825991,96.7488987 475.218062,96.8546256 477.535242,96.8678414 L479.54185,96.8127753 C510.328194,93.6696035 529.026432,63.3964758 530.656388,30.3634361 C530.669604,26.2753304 530.328194,22.8281938 529.60793,19.4757709 C527.964758,9.68281938 519.502203,2.34581498 509.420705,2.20264317 C498.046256,2.20044053 488.885463,10.8898678 488.378855,21.9096916 L485.363436,39.253304 Z M510.38326,22.8832599 C510.38326,22.9537445 510.376652,23.0220264 510.367841,23.0881057 C510.367841,23.0528634 510.370044,23.0220264 510.370044,22.9867841 L510.38326,22.8832599 L510.38326,22.8832599 Z M489.292952,40.5814978 L488.64978,44.3920705 L488.497797,44.438326 L489.070485,40.5792952 C489.145374,40.5792952 489.220264,40.5792952 489.292952,40.5814978 L489.292952,40.5814978 Z M489.65859,40.5947137 C490.22467,40.6299559 490.795154,40.7290749 491.378855,40.8854626 L489.65859,40.5947137 L489.65859,40.5947137 Z M380.257709,143.339207 L378.960352,145.019824 C378.870044,145.063877 378.773128,145.110132 378.669604,145.160793 C379.207048,144.378855 379.707048,143.786344 380.257709,143.339207 L380.257709,143.339207 Z M289.9163,220.286344 C290.744493,218.777533 291.755507,217.046256 292.9163,215.180617 C296.213656,209.889868 300.050661,204.603524 304.325991,199.751101 C315.753304,186.77533 327.885463,179.54185 339.88326,179.988987 L340.292952,179.997797 C347.321586,179.997797 354.781938,181.988987 363.231278,186.557269 L364.876652,187.447137 L365.634361,187.568282 C365.665198,187.69163 365.696035,187.814978 365.726872,187.936123 L365.72467,187.92511 C366.290749,190.090308 366.585903,192.506608 366.585903,195.096916 C366.54185,218.548458 341.218062,247.449339 321.123348,247.477974 C318.843612,247.477974 316.689427,247.180617 314.550661,246.557269 L314.134361,246.436123 L313.709251,246.348018 L312.623348,246.121145 L312.196035,246.03304 L311.764317,245.977974 C310.984581,245.878855 310.506608,245.740088 309.473568,245.319383 C309.508811,245.332599 307.729075,244.588106 307.070485,244.330396 C303.770925,243.026432 300.513216,242.174009 296.189427,241.636564 L295.511013,241.552863 L294.830396,241.552863 C282.290749,241.552863 272.526432,254.817181 272.455947,264.561674 C272.455947,266.160793 272.559471,267.585903 272.764317,269.099119 L272.814978,269.477974 L272.89207,269.852423 L273.198238,271.325991 L273.284141,271.742291 L273.403084,272.14978 C281.154185,298.980176 284.845815,322.69163 284.825991,343.345815 C284.438326,396.050661 261.5837,427.169604 222.160793,444.11674 C211.198238,448.830396 199.488987,452.193833 186.654185,454.693833 C180.907489,455.812775 167.96696,457.759912 162.823789,458.513216 C113.244493,448.988987 80.9867841,428.64978 62.2070485,399.746696 C47.907489,377.729075 42.1079295,352.453744 41.5528634,322.73348 C41.5682819,311.629956 42.4118943,303.220264 43.845815,294.4163 C65.7422907,234.969163 98.2643172,212.273128 145.180617,211.656388 C168.11674,211.548458 192.951542,217.898678 217.894273,228.645374 C226.625551,232.405286 234.698238,236.418502 242.14978,240.53304 C244.625551,241.898678 246.740088,243.112335 248.96696,244.422907 C249.270925,244.603524 250.60793,245.394273 250.88326,245.555066 C251.207048,245.744493 251.444934,245.878855 251.678414,246.008811 C251.707048,246.024229 251.735683,246.039648 251.764317,246.055066 C252.292952,246.376652 252.834802,246.671806 253.385463,246.940529 C260.731278,250.95815 260.488987,250.922907 261.200441,249.004405 C263.42511,249.143172 265.680617,248.92511 267.874449,248.339207 C273.495595,246.927313 278.354626,243.024229 281.063877,237.751101 L288.792952,222.486784 L288.931718,222.213656 L289.057269,221.931718 L289.189427,221.629956 L289.544053,220.814978 L289.76652,219.953744 C289.45815,221.162996 289.977974,220.121145 289.279736,221.477974 C289.451542,221.147577 289.667401,220.742291 289.9163,220.286344 L289.9163,220.286344 Z M160.689427,458.814978 L160.711454,458.814978 C160.680617,458.819383 160.662996,458.821586 160.65859,458.821586 C160.656388,458.821586 160.665198,458.819383 160.689427,458.814978 L160.689427,458.814978 Z M289.198238,221.634361 C289.226872,221.579295 289.253304,221.526432 289.279736,221.477974 C289.251101,221.53304 289.22467,221.585903 289.198238,221.634361 L289.198238,221.634361 Z M161.171806,263.0837 C159.017621,263.314978 155.581498,263.889868 151.268722,264.953744 C144.132159,266.715859 136.980176,269.281938 130.218062,272.84141 C109.301762,283.854626 96.5154185,301.962555 97.3810573,327.464758 C97.4317181,372.101322 122.218062,398.187225 161.762115,399.185022 C172.548458,400.052863 186.788546,398.004405 199.859031,391.017621 C220.418502,380.022026 233.310573,359.176211 235.011013,327.876652 L235.090308,326.378855 L234.768722,324.9163 C234.773128,324.940529 234.34141,322.667401 234.085903,321.462555 C233.590308,319.125551 233.006608,316.803965 232.257709,314.356828 C230.185022,307.552863 227.218062,300.947137 223.063877,294.700441 C210.955947,276.473568 191.200441,264.861233 163.050661,263.044053 L162.110132,262.982379 L161.171806,263.0837 L161.171806,263.0837 Z" id="path-1"></path>
    </defs>
    <g id="Page-1" stroke="none" stroke-width="1" fill="none" fill-rule="evenodd">
        <g transform="translate(0.000000, -2.000000)">
            <mask id="mask-2" fill="white">
                <use xlink:href="#path-1"></use>
            </mask>
            <use id="Clip-2" fill="#000000" xlink:href="#path-1"></use>
        </g>
    </g>
</svg>