<?xml version="1.0" encoding="utf-8"?>
<!-- Generator: Adobe Illustrator 18.1.1, SVG Export Plug-In . SVG Version: 6.00 Build 0)  -->
<svg version="1.1" id="Camada_1" xmlns="http://www.w3.org/2000/svg" xmlns:xlink="http://www.w3.org/1999/xlink" x="0px" y="0px"
	 viewBox="0 0 500.6 939" enable-background="new 0 0 500.6 939" xml:space="preserve">
<g>
	<g>
		<path d="M423.8,385.4c16.9-23,29.6-178.4,33.5-231.9C285,129.3,113.7,163,48.5,171.4c5.7,67.2,18.5,207.4,27.7,229.9
			C88.5,431,201,464.8,201,484.6c0,19.9-103,88.2-121.4,110c-18.4,21.8-40.9,169.2-17.6,193.5c38.2,39.9,214,87.3,374.1-4
			c15.4-8.8-7.5-185.1-34.8-208.3c-24.8-21.1-118.6-79.4-118.6-101.2C282.7,452.9,403.3,413.2,423.8,385.4z M386.7,690.2
			c12.7,15.5,15.5,41.6,10.5,60.8c-5.3,20.7-193.5,70.5-295.7,9.3c-13.2-7.9-4.3-39.3,10.9-62.2
			C221.4,534.1,315.5,602.9,386.7,690.2z M232.3,436.3c-28.6,0-110.4-48.9-111.8-70.1c-1.3-21.1,235.8-59.5,257.6-18.5
			C386.4,363.1,260.9,436.3,232.3,436.3z M29.2,149.3c43.7-0.7,253.5-51.6,456.6-15.1c24.5,4.4,15.9-110.9-6.8-117.8
			C311.4-35.2,64.2,49.7,29.2,68C9.1,78.5,16.5,149.5,29.2,149.3z M485.8,785.5c-3.8-3.4-10.6-6.6-19.6-9.6
			c0.4,17.6-1.3,29.9-5.5,32.1c-178.5,91.2-374.4,43.8-417,4c-6.1-5.6-9.3-18-10.5-33.8c-6.5,2.3-12.7,4.7-18.3,7.4
			c-14.4,6.8-20,55.6-9.1,80.7c28.9,66.1,346.4,120.4,480,7.9C499.2,862.8,496.8,795.1,485.8,785.5z"/>
	</g>
</g>
</svg>
