<?xml version="1.0" encoding="utf-8"?>
<!-- Generator: Adobe Illustrator 18.1.1, SVG Export Plug-In . SVG Version: 6.00 Build 0)  -->
<svg version="1.1" id="Camada_1" xmlns="http://www.w3.org/2000/svg" xmlns:xlink="http://www.w3.org/1999/xlink" x="0px" y="0px"
	 viewBox="0 0 710.7 501.9" enable-background="new 0 0 710.7 501.9" xml:space="preserve">
<path d="M682.3,95.1c-1.3,0-2.7,0.2-3.9,0.5c-7.5,0.8-15.1,1.8-22.9,3.1c-6.8-26-18.7-43.3-32.6-43.7c-1.7,0-3.3,0.2-5,0.7l0-0.1
	l-13.6,4.7C591.7,23.4,572.7,0,551.5,0c-2.8,0-5.6,0.5-8.3,1.3l0,0l-0.8,0.3c-0.6,0.2-1.2,0.4-1.9,0.7l-40.6,14.2l0,0
	c-30,10.3-53.7,68.1-58,141.2c-57.9,20.9-116,44.7-169.6,68.2c-19.4-47.7-46.5-77.4-71.7-73.1c-1.3,0.2-2.6,0.6-3.8,1v0l-50.5,18.5
	l0,0c-21,8.7-35.1,42-39.3,87.1c0,0-0.1,0-0.1,0c-1,0.2-2,0.5-2.9,0.9l0-0.1l-0.9,0.4c-0.2,0.1-0.3,0.1-0.5,0.2l-40.8,17.1
	c-13.7,5.9-22.5,29.4-23.9,60.4c-7.1,3.7-10.9,5.8-10.9,5.8C11.5,350,0,373.5,0,401.6C0,434.4,15.7,461,35,461c3.1,0,6.1-0.7,8.9-2
	l0,0c0.1,0,0.1-0.1,0.2-0.1c2-0.9,3.9-2.1,5.8-3.6c3.9-2.5,7.9-4.9,11.8-7.3c10.5,18.4,23,29.1,34.9,27c1.4-0.2,2.8-0.7,4.1-1.2l0,0
	l40.1-16.8l-0.1,0c1.4-0.5,2.7-1.3,4-2.1c17.7,31.8,39.1,50.2,59.2,46.7c1-0.2,2-0.4,3-0.7l0,0l0.2,0c1.4-0.4,2.7-0.9,4-1.5
	l44.6-16.4l0,0c33-10.2,50.1-79.4,40.5-161.5c54.6-25.6,105.8-47.2,152.2-65.3c11.3,55.7,34.8,94.1,61.9,94c2.7,0,5.3-0.4,7.9-1.1
	l-0.1,0l1-0.3c0.8-0.2,1.6-0.5,2.3-0.8l39.8-13.9l-0.1,0c20.1-6.4,37.4-34.1,48.1-73.4l15.5-5.7l-0.1-0.1
	c15.8-5.5,29.2-32.7,34.6-68.9c17.7-4.7,27.4-6.9,27.4-6.9v0c13.7-3,24.2-20.5,24.2-41.7C710.7,114,698,95.1,682.3,95.1z
	 M206.3,479.3c0,0,3.5-209.2-39.6-290C166.7,189.3,272.7,288.5,206.3,479.3z M537.8,320.3c0,0,12.4-209.2-30.7-290
	C507,30.3,617.7,128.2,537.8,320.3z"/>
</svg>
