<?xml version="1.0" encoding="utf-8"?>
<!-- Generator: Adobe Illustrator 18.1.1, SVG Export Plug-In . SVG Version: 6.00 Build 0)  -->
<svg version="1.1" id="Camada_1" xmlns="http://www.w3.org/2000/svg" xmlns:xlink="http://www.w3.org/1999/xlink" x="0px" y="0px"
	 viewBox="0 0 601.4 502" enable-background="new 0 0 601.4 502" xml:space="preserve">
<path d="M600.2,0.2C584.6-7.8-3.1,223.7,0,241.3c1.2,6.6,62.5,38.7,139.7,76.2c0.1-0.1,398.1-269.4,409-263
	c10.9,6.4-301.8,302-305.9,312c-4.1,10-24.6,75.9-30.8,75.9s-55.1-82.7-60.3-80.9c-5.2,1.8,44.7,138.6,54,140.5
	c0,0,99.8-101.9,106-104.3c6.2-2.4,141.9,59.1,141.9,59.1C469.3,453.6,615.8,8.2,600.2,0.2z"/>
</svg>
