<?xml version="1.0" encoding="UTF-8" standalone="no"?>
<svg width="500px" height="529px" viewBox="0 0 500 529" version="1.1" xmlns="http://www.w3.org/2000/svg" xmlns:xlink="http://www.w3.org/1999/xlink">
    <title>Fill 1</title>
    <desc>Created with Sketch.</desc>
    <defs></defs>
    <g id="Page-1" stroke="none" stroke-width="1" fill="none" fill-rule="evenodd">
        <path d="M334.079116,28.8198 C396.539016,28.6484947 446.750568,33.6166304 459.345966,45.624446 C497.097695,81.6184285 515.071804,481.133836 484.523956,509.930717 C453.976108,538.727598 62.0883395,531.533887 33.3406144,509.930717 C4.56237876,488.344498 -15.1830369,115.534303 15.3648111,76.2112797 C32.5504409,54.088226 158.956683,35.7865769 272.981711,30.4152211 C272.980819,30.4164161 272.97999,30.4176081 272.979161,30.4188001 C269.801867,34.9798668 266.629781,39.7371271 263.462904,44.6888447 C260.28561,49.6492434 257.518065,54.3040663 255.141171,58.6602583 C252.760805,63.0268676 252.465646,66.6868328 254.250487,69.6592524 C256.033591,72.6316719 258.709116,74.7134074 262.277062,75.9027224 C265.84327,77.0920375 269.503236,77.295176 273.274319,76.4965118 C277.038458,75.7065288 279.713983,73.9234244 281.300894,71.1454622 C282.490209,68.3779173 284.172612,64.9037283 286.353313,60.7402575 C288.527068,56.5785229 290.608803,52.5192256 292.595046,48.5519484 C294.576081,44.5950885 296.553643,41.1208995 298.543358,38.1484799 C300.52092,35.1760604 302.111303,33.6898506 303.298882,33.6898506 C305.27818,33.6898506 308.354773,37.1640396 312.514772,44.093319 C316.676506,51.0330158 322.121312,59.4589224 328.863079,69.3623577 C332.033429,74.5172138 335.40518,77.4913696 338.971389,78.2796163 C342.539334,79.0800167 345.808649,78.6789484 348.782804,77.0920375 C351.75696,75.5120715 353.930716,73.2271976 355.323169,70.2530418 C356.706942,67.2806223 356.809379,64.4106401 355.618328,61.6326779 C354.432485,58.865133 352.248312,55.1947505 349.081435,50.6336838 C345.904141,46.0812982 342.539334,41.2233368 338.971389,36.0667445 C337.305218,33.662396 335.658754,31.3433211 334.034477,29.1093427 L301.424179,29.1093427 C283.994659,29.1093427 272.950368,30.4093778 272.950368,30.4093769 C272.950368,30.4093759 279.154854,21.7046799 281.738359,17.9335963 C284.313183,14.1711937 286.391446,11.4956689 287.981829,9.90702173 C295.117719,1.98288456 301.258752,-1.18572858 306.411872,0.394237424 C311.559783,1.98288456 316.315307,5.74528711 320.681916,11.6901262 C322.496909,13.8732161 332.454253,26.7220267 334.079116,28.8198 Z M246.947504,133.608787 C244.211805,121.273156 240.933924,111.720283 237.111729,104.947328 C233.932727,99.7983864 227.194284,95.9314687 216.885978,93.346575 C206.568986,90.7721042 195.267024,89.182603 182.978356,88.5884943 C170.682739,87.9926485 158.784931,87.9926485 147.286671,88.5884943 C135.779724,89.182603 127.45178,89.8809412 122.302839,90.6696117 C116.743927,91.4687053 112.579955,93.5515598 109.810923,96.9164383 C107.02973,100.290003 105.646951,103.757374 105.646951,107.327237 C105.646951,110.895363 107.02973,114.168172 109.810923,117.14219 C112.579955,120.116207 116.743927,121.603216 122.302839,121.603216 C127.851327,121.603216 135.091809,121.212355 144.015599,120.413262 C152.937651,119.622854 161.953511,119.3258 171.082285,119.522099 C180.200637,119.725346 188.723143,120.710316 196.660226,122.496116 C204.590361,124.280179 210.538396,127.756236 214.507806,132.905178 C217.276838,136.08418 219.656747,143.613031 221.645795,155.510838 C223.626158,167.408645 225.307728,181.295501 226.702668,197.152295 C228.087184,213.017776 229.174646,229.673664 229.973739,247.119959 C230.764147,264.576678 231.163694,280.730527 231.163694,295.602352 C231.163694,310.475914 230.764147,322.966093 229.973739,333.079837 C229.174646,343.193581 227.984691,348.453701 226.403876,348.842825 C224.814375,349.641919 220.056294,349.346601 212.127897,347.951662 C204.189077,346.567146 194.671178,345.375454 183.574201,344.381799 C172.466802,343.396829 160.671487,343.099775 148.179571,343.488899 C135.687655,343.890183 124.180708,346.073792 113.676103,350.03278 C103.164549,354.00219 94.2407594,360.443578 86.9082079,369.367368 C79.5634963,378.289421 75.6983158,390.68753 75.3074548,406.546062 C74.5083613,428.361314 77.5848713,444.720148 84.528299,455.622563 C91.4630409,466.533664 100.293024,473.767197 110.99914,477.335323 C121.706993,480.905186 133.399815,481.798087 146.096716,480.012286 C158.784931,478.228223 170.783494,475.652015 182.087193,472.278451 C193.389154,468.91531 203.000859,465.642501 210.937942,462.463498 C218.86634,459.294919 223.429858,457.910402 224.619813,458.299526 C227.79013,460.288574 229.277138,462.668483 229.080839,465.439253 C228.877592,468.216971 228.384238,472.184644 227.59383,477.335323 C227.194284,479.713495 228.5788,481.70428 231.757802,483.283358 C234.928119,484.872859 238.39549,485.868252 242.168601,486.259113 C245.933026,486.656923 249.50289,486.165306 252.874717,484.772104 C256.241333,483.387588 257.933326,480.905186 257.933326,477.335323 C257.933326,476.171022 257.936498,474.920958 257.942864,473.585147 C259.228737,475.037241 260.573911,476.447735 261.978431,477.816557 C270.095289,485.751112 281.300894,491.697687 295.569202,495.654547 C309.038846,499.621824 321.626488,500.91184 333.321708,499.51765 C345.011721,498.135614 355.517626,495.560791 364.835953,491.789707 C374.143863,488.027304 382.170438,483.763132 388.915677,479.007608 C395.650499,474.250348 401.001549,470.088613 404.965354,466.522404 C408.135703,463.753123 409.028123,460.278934 407.640878,456.115464 C406.250161,451.955465 403.869795,448.38752 400.506724,445.4151 C397.134973,442.440945 393.466326,440.56582 389.509466,439.76542 C385.542189,438.977173 382.764227,440.56582 381.184261,444.524416 C379.196282,448.489957 375.538053,452.057903 370.187003,455.224779 C364.835953,458.402074 358.491782,460.87446 351.159698,462.657565 C343.820669,464.440669 336.092726,465.333089 327.970659,465.333089 C319.843383,465.333089 312.216141,464.348649 305.081987,462.358934 C294.768802,459.591389 286.651944,454.733427 280.707104,447.791994 C274.762265,440.862715 270.39392,433.523686 267.628111,425.795742 C264.846677,418.064326 263.362203,410.838152 263.167746,404.094649 C262.961135,397.359827 263.853555,392.60083 265.84327,389.824604 C267.030849,387.845306 270.598795,386.758429 276.54537,386.55529 C282.490209,386.360833 289.81882,386.256659 298.543358,386.256659 L326.784816,386.256659 C336.889654,386.256659 346.496194,385.765307 355.618328,384.772186 C364.733516,383.786009 372.954548,382.096661 380.291841,379.716294 C387.623925,377.337664 392.872537,373.575262 396.049831,368.422142 C400.404287,361.286251 403.677074,349.302817 405.857774,332.451004 C408.031529,315.607872 408.533299,296.582303 407.34572,275.374298 C406.156405,254.173238 403.079812,232.565901 398.12983,210.567912 C393.167695,188.569924 385.542189,168.85681 375.239422,151.409471 C369.685234,141.896687 362.057991,132.48634 352.349013,123.168013 C342.631354,113.860103 332.328587,106.429055 321.433767,100.87313 C310.528529,95.3276231 299.435778,92.8465556 288.136417,93.4420813 C276.840528,94.0358707 266.629781,99.2931641 257.518065,109.196599 C253.220321,113.878833 249.696249,122.015677 246.947504,133.608787 Z M280.113315,134.762533 C276.146038,139.129142 272.873251,147.544631 270.303636,160.031571 C267.718395,172.516775 265.63666,186.785084 264.060166,202.838233 C262.469783,218.891382 261.282204,235.743195 260.492221,253.374574 C259.69182,271.01637 259.302906,287.263976 259.302906,302.12781 C259.302906,316.99338 259.794258,329.282391 260.787379,338.989632 C261.773556,348.707291 263.067045,353.761446 264.653955,354.152097 C266.233921,354.549693 270.005005,354.848324 275.949844,355.044518 C281.892947,355.247656 288.9264,355.247656 297.055412,355.044518 C305.177479,354.848324 313.796107,354.549693 322.91824,354.152097 C332.033429,353.761446 340.457599,353.06522 348.189015,352.070362 C355.916959,351.085922 362.35315,349.896606 367.511478,348.504153 C372.655917,347.118644 375.435615,345.436241 375.833211,343.449998 C381.380455,306.987508 382.076681,274.183247 377.914947,245.051104 C373.754948,215.918962 366.518357,191.644781 356.215589,172.219881 C350.267278,161.517781 343.923107,152.506766 337.188285,145.167737 C330.443045,137.83739 323.607522,132.48634 316.676506,129.114588 C309.736809,125.751518 303.094007,124.459765 296.760254,125.249748 C290.416082,126.048413 284.867103,129.217026 280.113315,134.762533 Z M225.809767,382.750447 C224.220266,381.961776 220.250856,380.66933 213.91196,378.883529 C207.564378,377.099466 200.025105,375.520388 191.308037,374.125449 C182.578809,372.740932 173.359702,371.849769 163.645504,371.448485 C153.924358,371.059362 145.000568,371.74554 136.877609,373.529603 C128.744227,375.315403 122.005784,378.494406 116.651858,383.049238 C111.297931,387.612757 108.620968,394.054146 108.620968,402.38209 C108.620968,416.659806 111.492493,427.273852 117.245966,434.206857 C122.990754,441.150285 130.231236,445.613048 138.958727,447.591673 C147.677532,449.582458 157.101623,449.672791 167.215368,447.888728 C177.327375,446.104664 186.845273,443.530194 195.769063,440.156629 C204.691116,436.790014 212.322459,433.418187 218.671778,430.044622 C225.010674,426.678007 228.5788,424.195605 229.379631,422.606104 C230.567848,420.227932 231.554555,417.161845 232.353648,413.386997 C233.144056,409.622572 233.338618,405.654899 232.947757,401.48919 C232.54821,397.326955 231.851609,393.56253 230.86664,390.187228 C229.871247,386.82235 228.189676,384.339948 225.809767,382.750447 Z" id="Fill-1" fill="#000000"></path>
    </g>
</svg>