<?xml version="1.0" encoding="utf-8"?>
<!-- Generator: Adobe Illustrator 18.1.1, SVG Export Plug-In . SVG Version: 6.00 Build 0)  -->
<svg version="1.1" id="Camada_1" xmlns="http://www.w3.org/2000/svg" xmlns:xlink="http://www.w3.org/1999/xlink" x="0px" y="0px"
	 viewBox="0 0 503.3 554.3" enable-background="new 0 0 503.3 554.3" xml:space="preserve">
<g>
	<g>
		<path d="M475.1,115.4C411.4,2.6,259.6-33.7,136.2,34.3C12.7,102.4-35.7,249,28.1,361.9c13.5,24,31.1,44.4,51.5,61.2
			c1.8,45.1,6.8,126.3,18.5,130.9c10.4,4.1,71.7-43.3,114.2-77.8c51.1,4.5,105.2-6,154.8-33.3C490.5,374.9,538.9,228.2,475.1,115.4z
			 M343.7,406.1c-40.2,22.2-84.2,30.7-125.7,27c-34.6,28-84.4,66.6-92.8,63.2c-9.5-3.8-13.5-69.8-15.1-106.4
			c-16.5-13.6-30.8-30.3-41.8-49.7c-51.8-91.7-12.5-210.8,87.8-266.1c100.3-55.3,223.6-25.8,275.4,65.9
			C483.3,231.6,444,350.8,343.7,406.1z M308.5,274.7c-10.3,0.6-23.8,36.8-31.4,35.9c-7.7-0.8-89.7-84.9-89.3-91.5
			c0.4-6.5,32.5-22.9,31.4-32.7c-1-9.8-33.1-52.7-48-52.3c-5.8,0.2-39.7,40.3-32.9,75.6C149,264.7,209.6,326.6,254,351.5
			c72.8,40.8,113.3-16.7,110.8-24.5C362.3,319.2,318.9,274.1,308.5,274.7z"/>
	</g>
</g>
</svg>
