<?xml version="1.0" encoding="utf-8"?>
<!-- Generator: Adobe Illustrator 18.1.1, SVG Export Plug-In . SVG Version: 6.00 Build 0)  -->
<svg version="1.1" id="Camada_1" xmlns="http://www.w3.org/2000/svg" xmlns:xlink="http://www.w3.org/1999/xlink" x="0px" y="0px"
	 viewBox="0 0 500.4 500.2" enable-background="new 0 0 500.4 500.2" xml:space="preserve">
<path d="M475.1,152.7c-5.5-24.4-137.6,27.1-137.6,27.1s29.6-58.5,16.8-119.6c-6.8-32.6-95.6-77.9-121.2-53
	c-25.6,24.9,16.9,149.9,8.1,162.7c-8.7,12.7-53.5,37.2-58.4,66c-4.9,28.8,18.1,85,18.1,85l-29.5-0.4c-2.9-51.8-8.1-97.5-14.2-100.3
	c-14.1-6.5-139.4,20.8-153.5,40.3c-14.1,19.5,14.1,205.6,21.7,212.1c7.7,6.5,131.7,11.9,143.2,0c4.2-4.3,5.6-37.6,5.2-78.6l37.9-5.6
	c0,0-1.4,73.8,11.4,87.7c23.7,25.7,252.3,32.1,264.8,13C500.6,470,512.8,319.1,475.1,152.7z"/>
</svg>
