<?xml version="1.0" encoding="utf-8"?>
<!-- Generator: Adobe Illustrator 18.1.1, SVG Export Plug-In . SVG Version: 6.00 Build 0)  -->
<svg version="1.1" id="Camada_1" xmlns="http://www.w3.org/2000/svg" xmlns:xlink="http://www.w3.org/1999/xlink" x="0px" y="0px"
	 viewBox="0 0 499.4 531.8" enable-background="new 0 0 499.4 531.8" xml:space="preserve">
<path d="M425.1,175.6L425.1,175.6c-8-18.3-18.8-35.3-31.9-50.2h0l23.2-61l-74.5-41l-43.1,45.2c-18.7-4.4-37.5-5.9-55.9-4.6h0.1
	L208.9,0l-69,28.9l0.8,73.9h0.1c-13.4,10.1-25.7,21.9-36.4,35.2l0,0l-63.7-13.6L18.6,177l44.9,47.5l0-0.1c-4,18.7-5.4,37.3-4.3,55.4
	h0L0,301.6l14.3,62.9l73.2,6.2v-0.1c7.7,12.6,16.8,24.3,27.2,34.7l0,0L84.1,465l61.8,34.9l42.7-49.3h0c4.3,1.4,8.6,2.6,13.1,3.7
	c6.6,1.6,13.3,2.8,19.9,3.6l47.1,73.9l64.6-14l-4.8-78.5v0.1c14.8-7.4,28.7-16.5,41.4-27.4l0,0.1l59.9,20.2l32.6-52.8L424,338.6
	c4.6-10.5,8.4-21.4,11.3-32.9c2.1-8.2,3.5-16.4,4.6-24.5l0,0l59.6-40.4l-12.9-56.9L425.1,175.6z M226.5,361.1
	c-50.5-7.6-83.8-62.7-74.2-123.1c9.5-60.4,58.2-103.3,108.7-95.7c50.5,7.6,83.7,62.7,74.2,123.1C325.7,325.8,277,368.7,226.5,361.1z
	"/>
</svg>
