<?xml version="1.0" encoding="utf-8"?>
<!-- Generator: Adobe Illustrator 18.1.1, SVG Export Plug-In . SVG Version: 6.00 Build 0)  -->
<svg version="1.1" id="Camada_1" xmlns="http://www.w3.org/2000/svg" xmlns:xlink="http://www.w3.org/1999/xlink" x="0px" y="0px"
	 viewBox="0 0 503.4 503.6" enable-background="new 0 0 503.4 503.6" xml:space="preserve">
<g>
	<g>
		<path d="M305.1,240.8c0-11,198.3-162.6,198.3-178.3c0-15.6-38.5-62.5-52.5-62.5c-10,0-130.7,113.4-199.2,184.2
			C183.3,113.4,62.5,0,52.5,0C38.5,0,0,46.9,0,62.5c0,15.6,198.3,167.2,198.3,178.3C198.3,251.8,0,412.1,0,426.4
			s64.4,77.2,76.2,77.2c8.3,0,112.8-120.7,175.4-199.4c62.6,78.6,167.2,199.4,175.4,199.4c11.9,0,76.3-62.9,76.3-77.2
			S305.1,251.8,305.1,240.8z"/>
	</g>
</g>
</svg>
