<?xml version="1.0" encoding="utf-8"?>
<!-- Generator: Adobe Illustrator 18.1.1, SVG Export Plug-In . SVG Version: 6.00 Build 0)  -->
<svg version="1.1" id="Camada_1" xmlns="http://www.w3.org/2000/svg" xmlns:xlink="http://www.w3.org/1999/xlink" x="0px" y="0px"
	 viewBox="0 0 500.8 502.2" enable-background="new 0 0 500.8 502.2" xml:space="preserve">
<g>
	<g>
		<path d="M473,6.2C342.5-31.5,28.4,113.8,18.3,133.5c-41.7,81.7-3.3,278.9,26.2,296.2c6.3,3.7,46.9,1.4,109.2-5
			c15.3,32.1,57.1,77.5,68.2,77.5c25.7,0,66-53.3,85.3-90.9c80-11.3,144.7-25.2,157.9-36C499.4,347.3,520.8,20.1,473,6.2z
			 M424.7,347.3c-11.6,9.5-76.2,21.7-146.6,31.6c-16.9,33-42.1,78.9-51.6,79.9c-9.7,1-30.9-40-44.3-68.1
			c-54.8,5.6-107.5,8.3-112.7,4.4c-25.4-18.7-41.2-215.7-13.1-237.4C80.9,138.7,321.2,36,439.5,53.3
			C464.5,57,454.9,322.6,424.7,347.3z M372.2,128.7l-228,49.3l-1.3,37.2L371,163.8L372.2,128.7z M91.4,295.7l313.2-70.6l1.2-34.7
			L92.7,258.1L91.4,295.7z M143.2,352.9L355.8,305l5.2-36l-221.7,48L143.2,352.9z"/>
	</g>
</g>
</svg>
