<?xml version="1.0" encoding="utf-8"?>
<!-- Generator: Adobe Illustrator 18.1.1, SVG Export Plug-In . SVG Version: 6.00 Build 0)  -->
<svg version="1.1" id="Camada_1" xmlns="http://www.w3.org/2000/svg" xmlns:xlink="http://www.w3.org/1999/xlink" x="0px" y="0px"
	 viewBox="0 0 504.2 577" enable-background="new 0 0 504.2 577" xml:space="preserve">
<path fill="#020000" d="M295.7,284.9c48.1-42.4,102.9-86.9,164.4-131L350.4,0c0,0-89.1,71.6-182,191.6
	C90.8,129.9,48.6,86.6,48.6,86.6L0,134.1c28.4,57.1,62.7,109.4,99.3,156.5c-38.8,62-74.2,131.9-99.3,208l54.8,40
	c0,0,45-61.9,130.8-149.4C303.8,510,417.4,577,417.4,577l86.8-168.2C425.5,368.1,355.7,325.4,295.7,284.9z"/>
</svg>
