<?xml version="1.0" encoding="utf-8"?>
<!-- Generator: Adobe Illustrator 18.1.1, SVG Export Plug-In . SVG Version: 6.00 Build 0)  -->
<svg version="1.1" id="Camada_1" xmlns="http://www.w3.org/2000/svg" xmlns:xlink="http://www.w3.org/1999/xlink" x="0px" y="0px"
	 viewBox="0 0 501.8 532.5" enable-background="new 0 0 501.8 532.5" xml:space="preserve">
<path d="M443.6,217.4L443.6,217.4c-3.8-19.7-10.5-38.5-20-55.9h0l36.2-54.7l-63.7-55.9L343.9,86c-17.3-8.3-35.3-13.6-53.6-16.3h0.1
	L271.3,0l-73.9,13.6L181.8,86h0.1c-15.4,7-30,15.9-43.4,26.8l0,0L79.2,86l-33.4,46.8l33.4,55.8l0,0C71.1,206,65.7,224,62.7,241.9v0
	L0,250.7v64.5l70.2,21.5v-0.1c4.7,14,11,27.3,18.9,39.7l0,0l-43.2,51.8l52.7,47.2l52.7-39.2l0,0c3.9,2.3,7.8,4.4,12,6.4
	c6.1,3,12.4,5.5,18.6,7.7l29.6,82.2h66.2l12.7-77.6h0c16.1-4.1,31.7-10.1,46.5-18.1h0l54.1,32.4l43.6-44.7l-28.3-48.1
	c6.8-9.2,13-19.2,18.4-29.8c3.8-7.6,7.1-15.3,10-23.1l0,0l67.2-27v-58.3L443.6,217.4z M208.2,356.7c-47.7-18.1-67.9-79-45.2-136
	c22.7-57.1,79.9-88.7,127.6-70.6c47.7,18.1,67.9,79,45.2,136C313,343.2,255.9,374.8,208.2,356.7z"/>
</svg>
