<?xml version="1.0" encoding="utf-8"?>
<!-- Generator: Adobe Illustrator 18.1.1, SVG Export Plug-In . SVG Version: 6.00 Build 0)  -->
<svg version="1.1" id="Camada_1" xmlns="http://www.w3.org/2000/svg" xmlns:xlink="http://www.w3.org/1999/xlink" x="0px" y="0px"
	 viewBox="0 0 501.2 501.5" enable-background="new 0 0 501.2 501.5" xml:space="preserve">
<g>
	<g>
		<path d="M495.9,120.1c7.6-2.4,6.4-103.1,0-113c-6.4-10-482.5-8.9-490.6,0c-8.2,8.9-5.8,104.2,0,113
			C11.1,129,488.3,122.5,495.9,120.1z M5.3,195.5c-8.2,8.9-5.8,104.2,0,113c5.8,8.9,483,2.4,490.6,0c7.6-2.4,6.4-103.1,0-113
			C489.5,185.5,13.5,186.6,5.3,195.5z M5.3,383.9c-8.2,8.9-5.8,104.1,0,113c5.8,8.9,483,2.4,490.6,0c7.6-2.4,6.4-103.1,0-113
			C489.5,373.9,13.5,375,5.3,383.9z"/>
	</g>
</g>
</svg>
